<svg width="65" height="65" viewBox="0 0 65 65" fill="none" xmlns="http://www.w3.org/2000/svg">
<rect width="65" height="65" rx="15" fill="#F9E2DC"/>
<path d="M41.3846 16H23.6154C19.4142 16 16 19.4142 16 23.6154V41.3846C16 45.5858 19.4142 49 23.6154 49H41.3846C45.5858 49 49 45.5858 49 41.3846V23.6154C49 19.4142 45.5858 16 41.3846 16ZM23.6154 18.5385H41.3846C44.1896 18.5385 46.4615 20.8104 46.4615 23.6154H18.5385C18.5385 20.8104 20.8104 18.5385 23.6154 18.5385ZM46.4615 41.3846C46.4615 44.1896 44.1896 46.4615 41.3846 46.4615H23.6154C20.8104 46.4615 18.5385 44.1896 18.5385 41.3846V26.1538H46.4615V41.3846Z" fill="#DE836C"/>
<path d="M24.8845 36.308H32.5125C33.2106 36.308 33.7818 35.7368 33.7818 35.0388C33.7818 34.3407 33.2106 33.7695 32.5125 33.7695H24.8845C24.1864 33.7695 23.6152 34.3407 23.6152 35.0388C23.6152 35.7368 24.1864 36.308 24.8845 36.308Z" fill="#DE836C"/>
<path d="M24.8845 41.3842H36.3075C37.0056 41.3842 37.5768 40.813 37.5768 40.1149C37.5768 39.4169 37.0056 38.8457 36.3075 38.8457H24.8845C24.1864 38.8457 23.6152 39.4169 23.6152 40.1149C23.6152 40.813 24.1864 41.3842 24.8845 41.3842Z" fill="#DE836C"/>
</svg>
