<svg width="65" height="65" viewBox="0 0 65 65" fill="none" xmlns="http://www.w3.org/2000/svg">
<rect width="65" height="65" rx="15" fill="#F3EFFE"/>
<path fill-rule="evenodd" clip-rule="evenodd" d="M17.5579 19.4036C22.4284 19.4259 25.8233 20.0382 28.1067 21.1292C30.3214 22.1873 31.5074 23.6991 32.0162 25.7077C32.1512 26.2409 32.6311 26.6144 33.1812 26.6144C33.7312 26.6144 34.2111 26.2409 34.3462 25.7077C34.855 23.6991 36.041 22.1873 38.2557 21.1292C40.5391 20.0382 43.934 19.4259 48.8045 19.4036V41.0359C40.1299 41.0359 35.8697 42.5908 33.181 45.2487C30.5018 42.603 26.2359 41.0386 17.5804 41.0359C17.5701 41.0093 17.5579 40.9626 17.5579 40.8909V19.4036ZM16.6395 17.1809C16.9322 17.0603 17.2459 16.9988 17.5624 17H17.5633C22.5724 17.0225 26.3866 17.6435 29.1429 18.9604C30.9356 19.8169 32.2689 20.9637 33.1812 22.3861C34.0934 20.9637 35.4267 19.8169 37.2195 18.9604C39.9758 17.6435 43.7899 17.0225 48.7991 17H48.8C49.1165 16.9988 49.4302 17.0603 49.7229 17.1809C50.0156 17.3015 50.2816 17.4788 50.5054 17.7027C50.7292 17.9265 50.9066 18.1925 51.0272 18.4852C51.1474 18.777 51.2089 19.0896 51.2081 19.4052V41.0359C51.2081 41.6733 50.9549 42.2847 50.504 42.7354C50.0533 43.1862 49.4419 43.4394 48.8045 43.4394C39.3325 43.4394 36.0763 45.3495 34.1196 47.7955C33.8915 48.0807 33.5461 48.2467 33.1809 48.2466C32.8157 48.2465 32.4704 48.0804 32.2424 47.7951C30.2991 45.3635 27.0292 43.4394 17.5579 43.4394C16.833 43.4394 16.1986 43.1325 15.7637 42.6216C15.3439 42.1286 15.1543 41.5028 15.1543 40.8909V19.4055C15.1535 19.0898 15.2149 18.7771 15.3352 18.4852C15.4558 18.1925 15.6331 17.9265 15.857 17.7027C16.0808 17.4788 16.3468 17.3015 16.6395 17.1809Z" fill="#9B79FB"/>
<path fill-rule="evenodd" clip-rule="evenodd" d="M33.1813 24.2109C33.845 24.2109 34.3831 24.749 34.3831 25.4127V47.045C34.3831 47.7087 33.845 48.2468 33.1813 48.2468C32.5175 48.2468 31.9795 47.7087 31.9795 47.045V25.4127C31.9795 24.749 32.5175 24.2109 33.1813 24.2109Z" fill="#9B79FB"/>
</svg>
