<svg width="65" height="65" viewBox="0 0 65 65" fill="none" xmlns="http://www.w3.org/2000/svg">
<rect width="65" height="65" rx="15" fill="#E5F8F7"/>
<path d="M50.4992 22.4399C50.0501 22.2249 49.548 22.1402 49.0517 22.1959C48.5554 22.2516 48.0856 22.4453 47.6972 22.7543L43.172 26.3149V25.5524C43.2757 24.6724 43.1758 23.7807 42.8797 22.9441C42.5836 22.1074 42.0991 21.3474 41.4623 20.721C40.8255 20.0946 40.053 19.6179 39.2025 19.3266C38.352 19.0354 37.4456 18.9371 36.551 19.0391H20.6607C19.7661 18.9371 18.8597 19.0354 18.0092 19.3266C17.1588 19.6179 16.3862 20.0946 15.7495 20.721C15.1127 21.3474 14.6281 22.1074 14.332 22.9441C14.036 23.7807 13.936 24.6724 14.0397 25.5524V39.4476C13.936 40.3276 14.036 41.2193 14.332 42.0559C14.6281 42.8926 15.1127 43.6526 15.7495 44.279C16.3862 44.9054 17.1588 45.3821 18.0092 45.6734C18.8597 45.9646 19.7661 46.0629 20.6607 45.9609H36.551C37.4456 46.0629 38.352 45.9646 39.2025 45.6734C40.053 45.3821 40.8255 44.9054 41.4623 44.279C42.0991 43.6526 42.5836 42.8926 42.8797 42.0559C43.1758 41.2193 43.2757 40.3276 43.172 39.4476V38.6851L47.6972 42.2457C48.1641 42.6167 48.7461 42.819 49.3463 42.8189C49.7454 42.8183 50.1393 42.7299 50.4992 42.5601C50.9503 42.3488 51.3309 42.0157 51.5966 41.5995C51.8624 41.1834 52.0023 40.7015 52 40.2101V24.7899C52.0023 24.2985 51.8624 23.8166 51.5966 23.4005C51.3309 22.9843 50.9503 22.6512 50.4992 22.4399ZM40.5236 39.4476C40.5236 42.1867 39.3354 43.3556 36.551 43.3556H20.6607C17.8764 43.3556 16.6881 42.1867 16.6881 39.4476V25.5524C16.6881 22.8133 17.8764 21.6444 20.6607 21.6444H36.551C39.3354 21.6444 40.5236 22.8133 40.5236 25.5524V39.4476ZM49.3516 40.2118L43.172 35.3485V29.6515L49.3516 24.7882V40.2118Z" fill="#62CFC9"/>
</svg>
