<svg width="65" height="65" viewBox="0 0 65 65" fill="none" xmlns="http://www.w3.org/2000/svg">
<rect width="65" height="65" rx="15" fill="#FEF5F9"/>
<path fill-rule="evenodd" clip-rule="evenodd" d="M17.295 38.7291C17.295 42.0224 19.9649 44.6971 23.2429 44.6971H42.757C46.035 44.6971 48.705 42.0223 48.705 38.7291V26.2707C48.705 25.1716 48.405 24.1393 47.8844 23.2533L38.3628 32.807C36.9382 34.2406 35.0306 35.0304 32.998 35.0304C30.9695 35.0304 29.0618 34.2406 27.6373 32.807L18.1156 23.2533C17.595 24.1393 17.2951 25.1715 17.2951 26.2707V38.7291H17.295ZM23.243 20.3028H42.757C44.1107 20.3028 45.3603 20.7624 46.3599 21.5273L36.7425 31.1814C35.7469 32.176 34.4183 32.7277 32.998 32.7277C31.5818 32.7277 30.2531 32.176 29.2576 31.1814L19.6401 21.5273C20.6397 20.7624 21.8892 20.3028 23.243 20.3028ZM23.243 18H42.757C47.3013 18 51 21.7112 51 26.2708V38.7292C51 43.293 47.3013 47 42.757 47H23.243C18.6987 47 15 43.293 15 38.7292V26.2707C15 21.7111 18.6987 18 23.243 18Z" fill="#EB79AC"/>
</svg>
