<svg width="65" height="65" viewBox="0 0 65 65" fill="none" xmlns="http://www.w3.org/2000/svg">
<rect width="65" height="65" rx="15" fill="#E9F3FD"/>
<path d="M23.4 49.6C23.2236 49.6 23.046 49.5604 22.8792 49.4812C22.4652 49.2808 22.2 48.862 22.2 48.4V42.4H18.6C16.6152 42.4 15 40.7848 15 38.8V19.6C15 17.6152 16.6152 16 18.6 16H47.4C49.3848 16 51 17.6152 51 19.6V38.8C51 40.7848 49.3848 42.4 47.4 42.4H32.8212L24.15 49.3372C23.9328 49.5112 23.6676 49.6 23.4 49.6ZM18.6 18.4C17.9376 18.4 17.4 18.9388 17.4 19.6V38.8C17.4 39.4612 17.9376 40 18.6 40H23.4C24.0636 40 24.6 40.5364 24.6 41.2V45.904L31.65 40.2628C31.8636 40.0924 32.1264 40 32.4 40H47.4C48.0624 40 48.6 39.4612 48.6 38.8V19.6C48.6 18.9388 48.0624 18.4 47.4 18.4H18.6Z" fill="#5F98D0"/>
<path d="M42.6002 28.0016H23.4002C22.7366 28.0016 22.2002 27.464 22.2002 26.8016C22.2002 26.1392 22.7366 25.6016 23.4002 25.6016H42.6002C43.2638 25.6016 43.8002 26.1392 43.8002 26.8016C43.8002 27.464 43.2638 28.0016 42.6002 28.0016Z" fill="#5F98D0"/>
<path d="M33.0002 32.8004H23.4002C22.7366 32.8004 22.2002 32.2628 22.2002 31.6004C22.2002 30.938 22.7366 30.4004 23.4002 30.4004H33.0002C33.6638 30.4004 34.2002 30.938 34.2002 31.6004C34.2002 32.2628 33.6638 32.8004 33.0002 32.8004Z" fill="#5F98D0"/>
</svg>
