<svg width="65" height="65" viewBox="0 0 65 65" fill="none" xmlns="http://www.w3.org/2000/svg">
<rect width="65" height="65" rx="15" fill="#F9E2DC"/>
<path d="M38.0234 49.9987H27.9773C18.8855 49.9987 15.001 46.1142 15.001 37.0224V26.9763C15.001 17.8845 18.8855 14 27.9773 14H38.0234C47.1152 14 50.9997 17.8845 50.9997 26.9763V37.0224C50.9997 46.1142 47.1152 49.9987 38.0234 49.9987ZM27.9773 16.5115C20.2585 16.5115 17.5125 19.2575 17.5125 26.9763V37.0224C17.5125 44.7412 20.2585 47.4872 27.9773 47.4872H38.0234C45.7422 47.4872 48.4882 44.7412 48.4882 37.0224V26.9763C48.4882 19.2575 45.7422 16.5115 38.0234 16.5115H27.9773Z" fill="#EB6442"/>
<path d="M27.9775 29.9062C25.4325 29.9062 23.373 27.8468 23.373 25.3018C23.373 22.7567 25.4325 20.6973 27.9775 20.6973C30.5226 20.6973 32.582 22.7567 32.582 25.3018C32.582 27.8468 30.5226 29.9062 27.9775 29.9062ZM27.9775 23.2088C26.8222 23.2088 25.8846 24.1464 25.8846 25.3018C25.8846 26.4571 26.8222 27.3947 27.9775 27.3947C29.1328 27.3947 30.0705 26.4571 30.0705 25.3018C30.0705 24.1464 29.1328 23.2088 27.9775 23.2088Z" fill="#EB6442"/>
<path d="M17.3785 44.8928C16.9767 44.8928 16.5749 44.6918 16.3404 44.3402C15.9553 43.7709 16.106 42.984 16.6921 42.5989L24.9466 37.0568C26.755 35.8345 29.2497 35.9852 30.8907 37.3749L31.4432 37.8604C32.2804 38.5804 33.7036 38.5804 34.524 37.8604L41.4894 31.883C43.2642 30.3593 46.0604 30.3593 47.8519 31.883L50.5811 34.2271C51.1002 34.6792 51.1672 35.4661 50.7151 36.0019C50.263 36.521 49.4761 36.5879 48.9403 36.1359L46.2111 33.7918C45.3739 33.0718 43.9507 33.0718 43.1135 33.7918L36.1482 39.7692C34.3733 41.2929 31.5772 41.2929 29.7856 39.7692L29.233 39.2836C28.4628 38.6306 27.1903 38.5637 26.3364 39.1497L18.0818 44.6918C17.8641 44.8258 17.613 44.8928 17.3785 44.8928Z" fill="#EB6442"/>
</svg>
