<svg width="65" height="65" viewBox="0 0 65 65" fill="none" xmlns="http://www.w3.org/2000/svg">
<rect width="65" height="65" rx="15" fill="#F3F0FF"/>
<path d="M45.5815 19.4191C40.3405 14.1828 32.4833 12.5737 25.6058 15.3282C24.9507 15.5897 24.6316 16.3327 24.8931 16.9877C25.1545 17.6428 25.8976 17.9619 26.5526 17.7005C26.5545 17.6998 26.5563 17.699 26.5581 17.6982C28.447 16.9394 30.4644 16.5511 32.5 16.5547C41.2925 16.5547 48.4457 23.708 48.4457 32.5004C48.4328 38.1765 45.4164 43.4217 40.517 46.2876C39.9061 46.6401 39.6967 47.4212 40.0493 48.0321C40.4019 48.6429 41.1829 48.8523 41.7938 48.4998C41.797 48.4979 41.8001 48.4961 41.8032 48.4943C47.4992 45.1821 51.0026 39.0894 51 32.5004C51.0134 27.5913 49.0623 22.8808 45.5815 19.4191Z" fill="#8870E5"/>
<path d="M16.7294 25.4522C17.3494 25.7874 18.1238 25.5565 18.459 24.9365C18.4592 24.9361 18.4594 24.9358 18.4596 24.9353C19.6016 22.8287 21.1992 21.0035 23.1361 19.5925C23.7082 19.18 23.8376 18.3818 23.4251 17.8096C23.0126 17.2375 22.2145 17.1081 21.6423 17.5206C21.6396 17.5224 21.637 17.5244 21.6344 17.5263C19.3887 19.1624 17.5362 21.2789 16.2121 23.7216C15.8771 24.3423 16.1086 25.1171 16.7294 25.4522Z" fill="#8870E5"/>
<path d="M17.1592 36.8661C16.4456 34.3386 16.3618 31.6748 16.9152 29.1076C17.0609 28.4175 16.6196 27.7399 15.9295 27.5942C15.2444 27.4495 14.5706 27.8836 14.4189 28.5671C13.7768 31.5441 13.8741 34.6331 14.7022 37.5637C14.8949 38.2422 15.6012 38.636 16.2797 38.4433C16.9582 38.2505 17.3519 37.5443 17.1592 36.8658V36.8661Z" fill="#8870E5"/>
<path d="M23.6325 45.7561C21.562 44.3649 19.8431 42.5116 18.6116 40.3422C18.272 39.724 17.4956 39.4981 16.8774 39.8377C16.2592 40.1772 16.0333 40.9537 16.3728 41.5719C16.378 41.5814 16.3834 41.5908 16.3888 41.6001C17.8165 44.1155 19.8093 46.2646 22.2101 47.8777C22.7959 48.2705 23.5892 48.1139 23.982 47.528C24.3748 46.9421 24.2182 46.1488 23.6323 45.7561H23.6325Z" fill="#8870E5"/>
<path d="M37.1768 47.7487C33.6897 48.8115 29.9446 48.6537 26.5593 47.3014C25.9048 47.0384 25.1611 47.3558 24.8981 48.0103C24.6351 48.6648 24.9525 49.4085 25.6069 49.6715C29.5341 51.2414 33.8792 51.4247 37.9246 50.191C38.5991 49.9845 38.9784 49.2703 38.7719 48.5959C38.5653 47.9214 37.8512 47.5421 37.1768 47.7487Z" fill="#8870E5"/>
<path d="M32.5012 22.4961C31.7959 22.4961 31.2241 23.0679 31.2241 23.7732V31.2222H23.7752C23.0699 31.2222 22.498 31.794 22.498 32.4994C22.498 33.2047 23.0698 33.7765 23.7752 33.7765H31.2241V41.2255C31.2241 41.9308 31.7959 42.5026 32.5012 42.5026C33.2065 42.5026 33.7784 41.9308 33.7784 41.2255V33.7764H41.2273C41.9327 33.7764 42.5045 33.2046 42.5045 32.4992C42.5045 31.7939 41.9327 31.2221 41.2273 31.2221H33.7784V23.7732C33.7784 23.0679 33.2065 22.4961 32.5012 22.4961Z" fill="#8870E5"/>
</svg>
