<svg width="65" height="65" viewBox="0 0 65 65" fill="none" xmlns="http://www.w3.org/2000/svg">
<rect width="65" height="65" rx="15" fill="#FEF4EE"/>
<path fill-rule="evenodd" clip-rule="evenodd" d="M24.3575 14H24.4564H40.6421C41.7933 14 42.4805 13.9999 43.0736 14.078C47.1642 14.6165 50.3831 17.8354 50.9217 21.926C50.9997 22.5191 50.9997 23.2063 50.9996 24.3574V37.1062C50.9996 39.3176 50.9997 41.0431 50.8865 42.428C50.7715 43.8355 50.5343 44.9856 50.0061 46.0223C49.1321 47.7376 47.7376 49.1321 46.0223 50.0061C44.9856 50.5343 43.8355 50.7715 42.428 50.8865C41.0431 50.9997 39.3176 50.9996 37.1062 50.9996H27.8934C25.6821 50.9996 23.9566 50.9997 22.5717 50.8865C21.1641 50.7715 20.014 50.5343 18.9774 50.0061C17.2621 49.1321 15.8675 47.7376 14.9936 46.0223C14.4653 44.9856 14.2281 43.8355 14.1132 42.428C14 41.043 14 39.3175 14 37.1061V24.4564C14 24.4231 14 24.3901 14 24.3575C14 23.2064 13.9999 22.5191 14.078 21.926C14.6165 17.8354 17.8354 14.6165 21.926 14.078C22.5191 13.9999 23.2064 14 24.3575 14ZM24.4564 16.1449C23.1772 16.1449 22.6414 16.1472 22.206 16.2046C19.0779 16.6164 16.6164 19.0779 16.2046 22.206C16.1667 22.4933 16.1528 22.8244 16.1478 23.384H48.8519C48.8468 22.8244 48.833 22.4933 48.7951 22.206C48.3833 19.0779 45.9218 16.6164 42.7937 16.2046C42.3583 16.1472 41.8225 16.1449 40.5433 16.1449H24.4564ZM48.8547 25.5289H16.1449V37.0577C16.1449 39.3278 16.1457 40.9659 16.2509 42.2533C16.3551 43.5283 16.5562 44.3646 16.9047 45.0485C17.573 46.3602 18.6395 47.4267 19.9511 48.095C20.635 48.4434 21.4714 48.6446 22.7464 48.7487C24.0338 48.8539 25.6719 48.8547 27.9419 48.8547H37.0577C39.3278 48.8547 40.9659 48.8539 42.2533 48.7487C43.5283 48.6446 44.3646 48.4434 45.0485 48.095C46.3602 47.4267 47.4267 46.3602 48.095 45.0485C48.4434 44.3646 48.6446 43.5283 48.7487 42.2533C48.8539 40.9659 48.8547 39.3278 48.8547 37.0577V25.5289Z" fill="#F88F51"/>
<path fill-rule="evenodd" clip-rule="evenodd" d="M33.0543 31.8638C33.067 31.8725 33.0799 31.8812 33.0928 31.8898L36.3374 34.0744C36.3492 34.0824 36.3611 34.0904 36.3728 34.0983C36.6977 34.317 36.9991 34.5199 37.2306 34.7083C37.4723 34.905 37.7568 35.1775 37.9201 35.5748C38.136 36.1002 38.1347 36.69 37.9163 37.2144C37.7512 37.611 37.4655 37.8821 37.2228 38.0778C36.9905 38.2651 36.6882 38.4666 36.3623 38.6838C36.3505 38.6917 36.3387 38.6996 36.3268 38.7075L33.0435 40.8963C32.6434 41.1631 32.2837 41.403 31.9784 41.5684C31.6729 41.734 31.2535 41.9232 30.7641 41.8939C30.1381 41.8566 29.5598 41.547 29.1814 41.0469C28.8856 40.6559 28.8104 40.202 28.7787 39.8559C28.747 39.5102 28.747 39.0778 28.7471 38.5969V34.2028C28.7471 34.1872 28.7471 34.1718 28.7471 34.1563C28.747 33.673 28.747 33.2388 28.7788 32.8917C28.8106 32.5448 28.8859 32.0892 29.1832 31.6974C29.5631 31.1967 30.1435 30.8877 30.771 30.8523C31.262 30.8245 31.682 31.0165 31.9875 31.1839C32.2932 31.3513 32.6533 31.5939 33.0543 31.8638ZM30.919 33.0447C30.9176 33.0578 30.9161 33.072 30.9147 33.0873C30.893 33.3243 30.892 33.6582 30.892 34.2028V38.5505C30.892 39.0926 30.893 39.4246 30.9146 39.6602C30.916 39.6755 30.9175 39.6895 30.9189 39.7025C30.9305 39.6965 30.943 39.6899 30.9564 39.6826C31.1645 39.5699 31.4413 39.3866 31.8923 39.0859L35.137 36.9228C35.5106 36.6738 35.7294 36.5266 35.8764 36.4081C35.8843 36.4017 35.8917 36.3957 35.8985 36.39C35.8917 36.3842 35.8844 36.3782 35.8765 36.3718C35.7301 36.2526 35.5119 36.1044 35.1395 35.8537L31.8948 33.669C31.4431 33.3649 31.1656 33.1793 30.9569 33.0649C30.9434 33.0575 30.9308 33.0508 30.919 33.0447Z" fill="#F88F51"/>
<path fill-rule="evenodd" clip-rule="evenodd" d="M21.3986 24.9165L17.4961 16.6801L19.4344 15.7617L23.3369 23.9981L21.3986 24.9165Z" fill="#F88F51"/>
<path fill-rule="evenodd" clip-rule="evenodd" d="M30.343 24.9069L26.165 15.8943L28.111 14.9922L32.2889 24.0048L30.343 24.9069Z" fill="#F88F51"/>
<path fill-rule="evenodd" clip-rule="evenodd" d="M37.7932 24.9069L33.6152 15.8943L35.5612 14.9922L39.7391 24.0048L37.7932 24.9069Z" fill="#F88F51"/>
<path fill-rule="evenodd" clip-rule="evenodd" d="M45.8371 24.7448L41.6592 15.7322L43.6052 14.8301L47.7831 23.8427L45.8371 24.7448Z" fill="#F88F51"/>
</svg>
